<?xml version="1.0" encoding="UTF-8"?> <svg xmlns="http://www.w3.org/2000/svg" width="25" height="26" viewBox="0 0 25 26" fill="none"><path fill-rule="evenodd" clip-rule="evenodd" d="M24.6182 23.4034L18.4568 17.0451C20.0415 15.1749 20.9097 12.8226 20.9097 10.3739C20.9097 4.65385 16.2199 0 10.4534 0C4.68977 0 0 4.65385 0 10.3739C0 16.0956 4.68977 20.7495 10.4534 20.7495C12.6176 20.7495 14.6818 20.1022 16.4438 18.8708L22.654 25.2799C22.9136 25.5488 23.2619 25.696 23.6375 25.696C23.9903 25.696 24.325 25.5618 24.5807 25.3176C25.1244 24.8001 25.1398 23.943 24.6182 23.4034ZM10.4535 2.70695C14.7148 2.70695 18.1819 6.14744 18.1819 10.3739C18.1819 14.6026 14.7148 18.0426 10.4535 18.0426C6.19438 18.0426 2.7279 14.6026 2.7279 10.3739C2.7279 6.14744 6.19438 2.70695 10.4535 2.70695Z" fill="black"></path></svg> 