<?xml version="1.0" encoding="UTF-8"?> <svg xmlns="http://www.w3.org/2000/svg" xmlns:xlink="http://www.w3.org/1999/xlink" width="20px" height="20px" viewBox="0 0 20 20" version="1.1"><!-- Generator: Sketch 58 (84663) - https://sketch.com --><title>icon-instagram</title><desc>Created with Sketch.</desc><g id="Symbols" stroke="none" stroke-width="1" fill="none" fill-rule="evenodd"><g id="Organism-/-Footer-/-Desktop" transform="translate(-735.000000, -163.000000)" fill="#009DDC"><g id="Group" transform="translate(640.000000, 163.000000)"><path d="M100.880909,0 C97.6527273,0 95,2.64909091 95,5.88090909 L95,14.1195455 C95,17.3472727 97.6490909,20 100.880909,20 L109.119545,20 C112.347273,20 115,17.3509091 115,14.1195455 L115,5.88090909 C115,2.65272727 112.350909,0 109.119545,0 L100.880909,0 Z M100.880909,1.81818182 L109.119545,1.81818182 C111.367273,1.81818182 113.181818,3.63272727 113.181818,5.88090909 L113.181818,14.1195455 C113.181818,16.3672727 111.367273,18.1818182 109.119545,18.1818182 L100.880909,18.1818182 C98.6327273,18.1818182 96.8181818,16.3672727 96.8181818,14.1195455 L96.8181818,5.88090909 C96.8181818,3.63272727 98.6327273,1.81818182 100.880909,1.81818182 Z M110.369545,3.80681818 C109.911364,3.80681818 109.545455,4.17272727 109.545455,4.63090909 C109.545455,5.08863636 109.911364,5.45454545 110.369545,5.45454545 C110.827273,5.45454545 111.193182,5.08863636 111.193182,4.63090909 C111.193182,4.17272727 110.827273,3.80681818 110.369545,3.80681818 Z M105,4.54545455 C101.999091,4.54545455 99.5454545,6.99909091 99.5454545,10 C99.5454545,13.0009091 101.999091,15.4545455 105,15.4545455 C108.000909,15.4545455 110.454545,13.0009091 110.454545,10 C110.454545,6.99909091 108.000909,4.54545455 105,4.54545455 Z M105,6.36363636 C107.020455,6.36363636 108.636364,7.97954545 108.636364,10 C108.636364,12.0204545 107.020455,13.6363636 105,13.6363636 C102.979545,13.6363636 101.363636,12.0204545 101.363636,10 C101.363636,7.97954545 102.979545,6.36363636 105,6.36363636 Z" id="icon-instagram"></path></g></g></g></svg> 