<?xml version="1.0" encoding="UTF-8"?> <svg xmlns="http://www.w3.org/2000/svg" xmlns:xlink="http://www.w3.org/1999/xlink" width="20px" height="20px" viewBox="0 0 20 20" version="1.1"><!-- Generator: Sketch 58 (84663) - https://sketch.com --><title>icon-facebook</title><desc>Created with Sketch.</desc><g id="Symbols" stroke="none" stroke-width="1" fill="none" fill-rule="evenodd"><g id="Organism-/-Footer-/-Desktop" transform="translate(-640.000000, -163.000000)" fill="#009DDC"><g id="Group" transform="translate(640.000000, 163.000000)"><path d="M18.1675,0 L1.8325,0 C0.833333333,0 0,0.833333333 0,1.8325 L0,18.1675 C0,19.1666667 0.833333333,20 1.8325,20 L10,20 L10,11.6666667 L7.5,11.6666667 L7.5,9.16666667 L10,9.16666667 L10,6.66666667 C10,4.58333333 10.8333333,3.33333333 13.3333333,3.33333333 L15.8333333,3.33333333 L15.8333333,5.83333333 L14.7491667,5.83333333 C14.0008333,5.83333333 13.3333333,6.50083333 13.3333333,7.24916667 L13.3333333,9.16666667 L16.6666667,9.16666667 L16.25,11.6666667 L13.3333333,11.6666667 L13.3333333,20 L18.1675,20 C19.1666667,20 20,19.1666667 20,18.1675 L20,1.8325 C20,0.833333333 19.1666667,0 18.1675,0 Z" id="icon-facebook"></path></g></g></g></svg> 