<?xml version="1.0" encoding="UTF-8"?> <svg xmlns="http://www.w3.org/2000/svg" xmlns:xlink="http://www.w3.org/1999/xlink" width="25px" height="21px" viewBox="0 0 25 21" version="1.1"><!-- Generator: Sketch 58 (84663) - https://sketch.com --><title>icon-twitter</title><desc>Created with Sketch.</desc><g id="Symbols" stroke="none" stroke-width="1" fill="none" fill-rule="evenodd"><g id="Organism-/-Footer-/-Desktop" transform="translate(-685.000000, -163.000000)" fill="#009DDC"><g id="Group" transform="translate(640.000000, 163.000000)"><path d="M70,2.48546586 C69.0779408,2.90793624 68.0903207,3.19282244 67.0514889,3.3217117 C68.1115971,2.66524593 68.9262847,1.62543688 69.3080227,0.388713665 C68.3184234,0.995055835 67.2177415,1.43645043 66.0502617,1.67428182 C65.114843,0.642400477 63.7821001,0 62.3073498,0 C59.4748691,0 57.1775143,2.37268775 57.1775143,5.30159407 C57.1775143,5.71613673 57.2240255,6.12070582 57.3118524,6.50916375 C53.0481638,6.28846646 49.2706158,4.17764896 46.7394682,0.968971102 C46.2968699,1.75432614 46.0455117,2.66524593 46.0455117,3.63523996 C46.0455117,5.47421362 46.9502528,7.09760464 48.3272803,8.05072031 C47.4856261,8.02156679 46.6949362,7.7829682 46.0032063,7.3853039 C46.0032063,7.40831984 46.0032063,7.43031285 46.0032063,7.45230586 C46.0032063,10.021652 47.7726099,12.1634132 50.1162284,12.6528855 C49.6879793,12.7728241 49.2337533,12.8375245 48.7659202,12.8375245 C48.4346518,12.8375245 48.1137742,12.8055579 47.7995765,12.7408576 C48.453949,14.8455375 50.3480421,16.3819794 52.5909689,16.4249425 C50.8371515,17.8463047 48.6258919,18.6925241 46.2214129,18.6925241 C45.8060286,18.6925241 45.3990559,18.6684852 45,18.6175944 C47.2681616,20.1241156 49.9643249,21 52.8616243,21 C62.295722,21 67.4552454,12.9224278 67.4552454,5.91790981 C67.4552454,5.68800614 67.4495552,5.45631233 67.4418858,5.23050038 C68.4431129,4.48324951 69.3117337,3.54931378 70,2.48546586 Z" id="icon-twitter"></path></g></g></g></svg> 