<?xml version="1.0" encoding="UTF-8"?> <svg xmlns="http://www.w3.org/2000/svg" xmlns:xlink="http://www.w3.org/1999/xlink" width="20px" height="20px" viewBox="0 0 20 20" version="1.1"><!-- Generator: Sketch 58 (84663) - https://sketch.com --><title>icon-linkedin</title><desc>Created with Sketch.</desc><g id="Symbols" stroke="none" stroke-width="1" fill="none" fill-rule="evenodd"><g id="Organism-/-Footer-/-Desktop" transform="translate(-780.000000, -163.000000)" fill="#009DDC"><g id="Group" transform="translate(640.000000, 163.000000)"><path d="M158.523333,0 L141.477778,0 C140.661944,0 140,0.641388889 140,1.43333333 L140,18.5666667 C140,19.3577778 140.661944,20 141.477778,20 L158.523333,20 C159.339167,20 160,19.3577778 160,18.5666667 L160,1.43333333 C160,0.641388889 159.339167,0 158.523333,0 Z M143.041389,16.7416667 L146.063333,16.7416667 L146.063333,7.71166667 L143.041389,7.71166667 L143.041389,16.7416667 Z M144.553056,6.47777778 L144.532222,6.47777778 C143.518889,6.47777778 142.8625,5.78444444 142.8625,4.9175 C142.8625,4.03222222 143.538333,3.35833333 144.571389,3.35833333 C145.605556,3.35833333 146.241389,4.03222222 146.260833,4.9175 C146.260833,5.78555556 145.605556,6.47777778 144.553056,6.47777778 Z M156.956389,16.7416667 L153.935556,16.7416667 L153.935556,11.9097222 C153.935556,10.6955556 153.497222,9.8675 152.405556,9.8675 C151.568889,9.8675 151.073056,10.4263889 150.855,10.9658333 C150.774722,11.1588889 150.755278,11.4280556 150.755278,11.6969444 L150.755278,16.7416667 L147.734444,16.7416667 C147.734444,16.7416667 147.774444,8.55805556 147.734444,7.71166667 L150.755278,7.71166667 L150.755278,8.99194444 C151.156667,8.37666667 151.872778,7.49888889 153.477778,7.49888889 C155.465556,7.49888889 156.956389,8.78916667 156.956389,11.5636111 L156.956389,16.7416667 Z M150.735556,9.02027778 C150.741111,9.01138889 150.7475,9.00166667 150.755278,8.99194444 L150.755278,9.02027778 L150.735556,9.02027778 Z" id="icon-linkedin"></path></g></g></g></svg> 